<svg version="1.1" id="Layer_1" xmlns="http://www.w3.org/2000/svg" xmlns:xlink="http://www.w3.org/1999/xlink" x="0px" y="0px"
	 width="100%" viewBox="0 0 496 496" enable-background="new 0 0 496 496" xml:space="preserve">
<path fill="#000000" opacity="1.000000" stroke="none" 
	d="
M297.833374,457.055847 
	C288.670715,460.478729 280.052185,464.595306 270.826233,466.292236 
	C260.609406,468.171448 250.641541,471.242584 240.047028,471.625793 
	C232.436829,471.901062 224.763123,472.949432 217.209290,472.166626 
	C205.234253,470.925629 193.274857,469.943054 181.671066,465.612061 
	C168.073059,460.536682 154.754257,455.208557 142.633362,447.131378 
	C128.379089,437.632568 116.174316,425.902985 105.627640,412.516876 
	C87.247429,389.188141 74.191483,362.748932 62.798687,335.574493 
	C53.644302,313.739288 50.299335,290.611115 50.642738,266.850128 
	C51.036526,239.602936 56.736485,213.420273 65.715981,187.939011 
	C72.382095,169.022430 82.785675,151.920074 94.075699,135.401108 
	C106.611374,117.059586 122.028900,101.147072 137.144897,85.023712 
	C150.925919,70.324280 165.883591,56.812317 182.717712,45.656483 
	C194.652542,37.747375 207.715591,32.611012 222.433167,32.910526 
	C232.461166,33.114605 242.193527,30.425276 252.158905,29.719236 
	C272.485748,28.279093 291.733582,32.268574 310.353546,40.018066 
	C320.938171,44.423306 332.160248,47.149448 342.445618,52.331013 
	C357.141418,59.734482 369.834198,69.319435 380.486694,82.224915 
	C388.258026,91.639900 395.264191,101.422600 401.504120,111.783157 
	C410.504700,126.727386 419.010590,141.968903 427.787506,157.048676 
	C433.311157,166.538940 438.440887,176.314484 442.352783,186.490265 
	C445.746246,195.317459 448.943726,204.446075 449.129517,214.265091 
	C449.321198,224.395752 449.939636,234.535721 450.514008,244.641647 
	C451.667419,264.935730 448.528503,284.658630 444.042542,304.206909 
	C441.498322,315.293793 437.136047,325.907745 432.585388,336.370911 
	C427.196228,348.761963 420.460724,360.456024 413.759247,372.149872 
	C412.063232,375.109344 409.161652,377.358856 406.941711,380.040314 
	C396.696625,392.415253 386.115570,404.279083 373.186890,414.185089 
	C359.683868,424.531189 345.104523,432.999390 330.506195,441.432556 
	C320.194550,447.389435 308.993073,451.805939 297.833374,457.055847 
M343.945129,404.415344 
	C362.451996,393.636841 376.712891,378.129303 389.654205,361.586456 
	C401.179321,346.853943 408.682770,329.590668 415.400940,312.223358 
	C421.748230,295.814850 425.470795,278.573792 426.451294,261.008362 
	C427.415222,243.740372 427.158569,226.396454 424.345612,209.242264 
	C423.653748,205.023056 422.660675,200.698410 420.899933,196.835251 
	C411.655487,176.552719 401.162933,156.922287 389.343353,138.005814 
	C381.867798,126.041718 375.306274,113.531670 366.160828,102.604813 
	C356.784851,91.402466 347.005554,80.880013 333.330933,74.867744 
	C318.444183,68.322533 303.239807,62.570690 287.715546,57.776100 
	C278.915741,55.058311 269.734924,53.487965 260.505280,53.331413 
	C241.478088,53.008675 224.658630,60.295048 208.423492,69.305733 
	C199.175446,74.438507 189.949661,80.126137 180.085068,71.278610 
	C164.544342,82.441750 151.623764,96.162354 139.218811,110.191551 
	C128.805954,121.967827 119.090370,134.398849 109.778336,147.208954 
	C93.966202,168.960938 85.503860,193.565750 77.616776,218.594864 
	C74.616402,228.116333 74.452232,238.244156 72.926529,248.083710 
	C70.927216,260.977631 71.869484,273.876099 72.128975,286.768127 
	C72.266205,293.585907 74.935303,300.082123 76.016113,306.751923 
	C77.972504,318.824951 83.268356,329.478394 88.606857,340.136261 
	C93.657494,350.219421 99.604286,359.906372 104.591125,369.954559 
	C111.791855,384.463562 121.637375,396.941742 132.349472,408.468567 
	C144.008392,421.014221 157.688004,431.359253 174.229355,437.869476 
	C190.841965,444.407654 207.255127,449.389435 225.412766,447.922760 
	C238.116150,446.896637 250.800980,446.470001 263.183563,442.974915 
	C278.419922,438.674255 292.720367,432.258179 306.903412,425.308167 
	C319.465851,419.152222 331.709259,412.554413 343.945129,404.415344 
z"/>
<path fill="#000000" opacity="1.000000" stroke="none" 
	d="
M144.376740,223.654495 
	C144.739639,222.661224 144.863571,221.976776 145.194656,221.414246 
	C146.507309,219.184082 147.353287,216.006836 150.752609,216.643097 
	C153.722763,217.199020 153.813309,220.116135 154.387543,222.565964 
	C158.014252,238.038635 155.777374,253.748001 156.227554,269.337738 
	C156.698013,285.629486 158.295166,301.322021 167.396530,315.618195 
	C180.346771,335.960114 197.040176,349.339539 222.283478,350.951508 
	C232.150925,351.581635 242.074142,351.642578 251.909271,352.040863 
	C264.271423,352.541443 277.392181,350.804688 287.676727,343.320465 
	C296.925903,336.589630 305.201721,328.160126 311.476044,318.245209 
	C316.353821,310.537170 320.890381,302.611420 324.622253,294.287842 
	C329.502136,283.403717 332.146820,271.825134 330.828522,260.007568 
	C329.907471,251.751007 328.312592,243.486923 324.551941,235.616653 
	C320.950439,228.079422 318.935120,219.715729 316.832550,211.558060 
	C315.681610,207.092468 321.291382,197.954407 325.336670,196.199966 
	C330.186676,194.096512 343.100098,199.126816 344.736359,204.515381 
	C345.795227,208.002441 348.110870,210.535004 349.441193,213.740784 
	C353.953247,224.613739 356.048981,236.259384 360.562195,247.176620 
	C362.232452,251.216949 359.836731,256.752777 360.490295,261.439941 
	C361.621643,269.553894 359.548309,277.279083 358.762268,285.149780 
	C357.650360,296.283386 352.426666,306.003876 347.359619,315.685608 
	C343.583771,322.900269 340.331573,330.750580 335.047516,336.727722 
	C327.529663,345.231659 320.896942,354.779022 311.125336,361.188599 
	C307.525452,363.549957 304.433014,366.678162 300.865143,369.096680 
	C294.529419,373.391388 287.023499,374.898895 279.880280,377.159912 
	C267.281860,381.147736 254.198074,379.660522 241.282196,380.395905 
	C228.405426,381.129028 216.119904,378.112061 203.908447,375.748779 
	C192.223145,373.487396 181.289230,368.488586 171.673508,360.005493 
	C155.543274,345.775208 144.898224,328.255951 137.759277,308.663269 
	C135.341660,302.028137 133.680664,294.109741 135.333466,286.294769 
	C136.388535,281.306183 135.075317,276.141266 135.469345,270.945831 
	C136.683395,254.938232 140.579834,239.520645 144.376740,223.654495 
z"/>
<path fill="#000000" opacity="1.000000" stroke="none" 
	d="
M224.253662,255.110413 
	C223.815109,256.771912 223.505066,258.072998 223.033966,259.312958 
	C220.877731,264.988129 215.495132,269.346375 211.000488,269.114807 
	C203.391632,268.722778 197.450317,263.771820 195.695450,256.993805 
	C192.519806,244.728271 192.782043,232.123062 191.751755,219.658203 
	C190.569595,205.355774 190.234222,191.031952 191.109848,176.645340 
	C191.578018,168.953262 190.290695,161.157745 189.861282,153.405289 
	C189.751266,151.418762 189.649323,149.379822 189.961227,147.431824 
	C190.836838,141.963333 194.727386,138.316452 199.945786,137.773544 
	C203.657913,137.387344 208.443985,140.715927 210.212296,145.169754 
	C212.688324,151.406219 213.174957,158.096191 214.208496,164.634155 
	C216.281693,177.748932 215.667328,191.083176 217.051392,204.249832 
	C218.519150,218.212708 218.723083,232.393112 223.382721,245.881592 
	C224.372879,248.747879 224.815353,251.689804 224.253662,255.110413 
z"/>
<path fill="#000000" opacity="1.000000" stroke="none" 
	d="
M251.878250,197.679657 
	C252.251877,176.747086 253.742416,156.415390 259.148743,136.553146 
	C260.178009,132.771835 262.174103,130.492477 266.514313,130.600601 
	C271.622650,130.727875 274.899384,133.018066 275.101440,138.237518 
	C275.479706,148.010025 275.082855,157.811935 275.435883,167.586182 
	C276.004059,183.316162 277.022125,198.951935 280.354614,214.484344 
	C282.581451,224.863480 286.046204,234.867233 288.156219,245.225464 
	C289.262085,250.654358 287.658356,255.733093 284.742523,260.357086 
	C284.241272,261.152039 283.333374,261.780762 282.483368,262.251709 
	C273.565826,267.192383 263.770660,263.164429 260.463654,253.411621 
	C257.663666,245.153992 257.237000,236.481613 255.608261,228.022705 
	C253.704178,218.133835 253.524216,208.058777 251.878250,197.679657 
z"/>
</svg>